<?xml version="1.0" encoding="UTF-8"?>
<svg xmlns="http://www.w3.org/2000/svg" xmlns:xlink="http://www.w3.org/1999/xlink" width="50pt" height="42pt" viewBox="0 0 50 42" version="1.1">
	<g id="surface1">
		<path style="fill-rule:evenodd;fill:rgb(100%,100%,0%);fill-opacity:0.1;stroke-width:37;stroke-linecap:butt;stroke-linejoin:miter;stroke:rgb(0%,0%,0%);stroke-opacity:1;stroke-miterlimit:10;" d="M 1077.878203 1959.632812 C 1039.112578 1769.337891 970.885078 1611.047991 888.120469 1464.133371 C 826.676953 1355.393415 755.542031 1254.751116 689.640469 1149.288783 C 667.737891 1114.006138 648.742734 1076.79548 627.615469 1040.163225 C 585.360937 967.091518 551.247187 882.258929 553.379297 772.169364 C 555.511406 664.779018 586.523906 578.596819 631.298203 508.031529 C 705.146719 392.157924 828.615234 297.106864 994.338281 272.04269 C 1129.824141 251.605748 1256.781562 286.117188 1346.717813 338.944754 C 1420.3725 381.939453 1477.357969 439.394252 1520.775469 507.067522 C 1565.937422 577.825614 1597.14375 661.501395 1599.663516 770.434152 C 1601.020312 826.153739 1591.910391 877.824498 1578.923906 920.819196 C 1565.937422 964.199498 1545.003984 1000.44615 1526.396484 1039.199219 C 1489.956797 1114.970145 1444.407187 1184.185826 1398.469922 1253.594308 C 1262.014922 1460.277344 1134.088359 1670.816406 1077.878203 1959.632812 Z M 1077.878203 1959.632812 " transform="matrix(0.0201532,0,0,0.0202605,0,0)"/>
	</g>
</svg>